<svg width="100" height="100" viewBox="0 0 100 100" fill="none" xmlns="http://www.w3.org/2000/svg">
<circle cx="50" cy="50" r="50" fill="white"/>
<g clip-path="url(#clip0_22_15)">
<path d="M57.1716 42.8288C63.2396 48.9032 63.1563 58.6419 57.2081 64.6231C57.1969 64.6353 57.1837 64.6485 57.1716 64.6607L50.3465 71.4857C44.3269 77.5053 34.5334 77.5045 28.5147 71.4857C22.4951 65.4671 22.4951 55.6724 28.5147 49.6538L32.2833 45.8852C33.2826 44.8859 35.0037 45.5501 35.0553 46.9624C35.1211 48.7623 35.4439 50.5706 36.0394 52.3169C36.2411 52.9082 36.097 53.5623 35.6552 54.0041L34.3261 55.3332C31.4797 58.1796 31.3904 62.8143 34.2088 65.6885C37.055 68.5911 41.7331 68.6083 44.6012 65.7403L51.4262 58.9163C54.2893 56.0532 54.2773 51.4254 51.4262 48.5742C51.0503 48.199 50.6716 47.9076 50.3759 47.7039C50.1667 47.5603 49.9939 47.3697 49.8714 47.1474C49.7489 46.9251 49.6801 46.6773 49.6703 46.4236C49.6301 45.3504 50.0104 44.2445 50.8584 43.3965L52.9967 41.2581C53.5574 40.6973 54.4371 40.6285 55.0873 41.0823C55.8319 41.6022 56.5294 42.1866 57.1716 42.8288ZM71.4853 28.5144C65.4666 22.4956 55.673 22.4948 49.6534 28.5144L42.8284 35.3394C42.8162 35.3516 42.803 35.3648 42.7918 35.377C36.8437 41.3582 36.7603 51.0969 42.8284 57.1713C43.4705 57.8134 44.168 58.3978 44.9126 58.9177C45.5628 59.3715 46.4425 59.3026 47.0031 58.7419L49.1414 56.6035C49.9895 55.7555 50.3697 54.6496 50.3295 53.5764C50.3198 53.3228 50.2509 53.0749 50.1284 52.8526C50.0059 52.6303 49.8332 52.4398 49.6239 52.2961C49.3282 52.0924 48.9496 51.801 48.5737 51.4258C45.7225 48.5746 45.7105 43.9468 48.5737 41.0837L55.3987 34.2597C58.2667 31.3917 62.9448 31.4089 65.7911 34.3115C68.6094 37.1857 68.5202 41.8204 65.6738 44.6668L64.3446 45.996C63.9028 46.4377 63.7587 47.0918 63.9604 47.6831C64.556 49.4294 64.8787 51.2377 64.9445 53.0376C64.9962 54.4499 66.7172 55.1141 67.7166 54.1148L71.4852 50.3462C77.5049 44.3277 77.5049 34.533 71.4853 28.5144Z" fill="#D65A31"/>
</g>
<defs>
<clipPath id="clip0_22_15">
<rect width="52" height="52" fill="white" transform="translate(24 24)"/>
</clipPath>
</defs>
</svg>
