<svg width="92" height="92" viewBox="0 0 92 92" fill="none" xmlns="http://www.w3.org/2000/svg">
<g clip-path="url(#clip0_208_271)">
<path d="M21 16.6813V10.5833C21 7.13156 23.7981 4.33334 27.25 4.33334H81.4167C84.8685 4.33334 87.6667 7.13156 87.6667 10.5833V64.75C87.6667 68.2019 84.8685 71 81.4167 71H75.2029" stroke="#0B132B" stroke-width="8.33333"/>
<path d="M68.9167 16.8333H10.5833C7.13155 16.8333 4.33333 19.6316 4.33333 23.0833V81.4167C4.33333 84.8684 7.13155 87.6667 10.5833 87.6667H68.9167C72.3684 87.6667 75.1667 84.8684 75.1667 81.4167V23.0833C75.1667 19.6316 72.3684 16.8333 68.9167 16.8333Z" stroke="#0B132B" stroke-width="8.33333" stroke-linejoin="round"/>
<path d="M34.4158 44.1454L45.4419 32.6673C48.4662 29.6429 53.436 29.7096 56.5425 32.816C59.649 35.9225 59.7156 40.8923 56.6915 43.9167L52.7121 48.1308" stroke="#0B132B" stroke-width="8.33333" stroke-linecap="round" stroke-linejoin="round"/>
<path d="M24.0544 55.8894C22.9913 56.9527 20.7929 59.0754 20.7929 59.0754C17.7685 62.0998 17.6865 67.49 20.7929 70.5965C23.8994 73.7029 28.8692 73.7696 31.8936 70.7452L42.6523 60.9779" stroke="#0B132B" stroke-width="8.33333" stroke-linecap="round" stroke-linejoin="round"/>
<path d="M34.8815 55.0173C33.4385 53.5744 32.6515 51.7294 32.5252 49.864C32.38 47.7135 33.1131 45.5363 34.7325 43.9167" stroke="#0B132B" stroke-width="8.33333" stroke-linecap="round" stroke-linejoin="round"/>
<path d="M42.5038 49.8773C45.6102 52.9837 45.6769 57.9535 42.6525 60.9779" stroke="#0B132B" stroke-width="8.33333" stroke-linecap="round" stroke-linejoin="round"/>
</g>
<defs>
<clipPath id="clip0_208_271">
<rect width="92" height="92" fill="white"/>
</clipPath>
</defs>
</svg>
