<svg width="18" height="18" viewBox="0 0 18 18" fill="none" xmlns="http://www.w3.org/2000/svg">
<g clip-path="url(#clip0_211_67)">
<path fill-rule="evenodd" clip-rule="evenodd" d="M3.87272 9C3.87272 8.4284 3.96766 7.8804 4.1371 7.3664L1.17129 5.1016C0.593271 6.2752 0.267609 7.5976 0.267609 9C0.267609 10.4012 0.59287 11.7228 1.17009 12.8956L4.13429 10.6264C3.96646 10.1148 3.87272 9.5688 3.87272 9Z" fill="#FBBC05"/>
<path fill-rule="evenodd" clip-rule="evenodd" d="M9.08011 3.8C10.3219 3.8 11.4435 4.24 12.3247 4.96L14.8884 2.4C13.3261 1.04 11.3233 0.199997 9.08011 0.199997C5.59757 0.199997 2.60453 2.1916 1.1713 5.1016L4.1371 7.3664C4.82047 5.292 6.76843 3.8 9.08011 3.8Z" fill="#EB4335"/>
<path fill-rule="evenodd" clip-rule="evenodd" d="M9.08011 14.2C6.76843 14.2 4.82047 12.708 4.1371 10.6336L1.1713 12.898C2.60453 15.8084 5.59757 17.8 9.08011 17.8C11.2296 17.8 13.2817 17.0368 14.8219 15.6068L12.0067 13.4304C11.2123 13.9308 10.2121 14.2 9.08011 14.2Z" fill="#34A853"/>
<path fill-rule="evenodd" clip-rule="evenodd" d="M17.492 9C17.492 8.48 17.4119 7.92 17.2918 7.4H9.08011V10.8H13.8068C13.5705 11.9592 12.9272 12.8504 12.0067 13.4304L14.8219 15.6068C16.4397 14.1052 17.492 11.8684 17.492 9Z" fill="#4285F4"/>
</g>
<defs>
<clipPath id="clip0_211_67">
<rect width="18" height="18" fill="white"/>
</clipPath>
</defs>
</svg>
