<svg width="710" height="1024" viewBox="0 0 710 1024" fill="none" xmlns="http://www.w3.org/2000/svg">
<g clip-path="url(#clip0_288_103)">
<path fill-rule="evenodd" clip-rule="evenodd" d="M431.493 -57.8367C467.4 -125.121 515.911 -188.376 588.354 -212.221C665.44 -237.594 753.17 -230.493 821.087 -186.071C886.985 -142.969 912.712 -64.0125 931.763 12.3907C950.787 88.6845 963.228 169.395 927.142 239.255C889.044 313.01 820.796 376.817 738.381 386.765C661.252 396.076 601.505 330.966 537.989 286.23C481.72 246.599 417.359 212.076 397.01 146.33C375.794 77.7876 397.712 5.46359 431.493 -57.8367Z" fill="#1C2541" fill-opacity="0.31" stroke="#1C2541"/>
<path fill-rule="evenodd" clip-rule="evenodd" d="M-13.3956 732.357C59.3262 712.128 135.672 744.471 197.131 788.295C253.066 828.18 281.931 891.01 301.465 956.873C321.886 1025.72 333.156 1096.53 308.559 1164C278.276 1247.07 239.326 1349.63 152.395 1365.81C66.1667 1381.85 12.7441 1277.08 -63.1709 1233.16C-139.846 1188.79 -263.262 1196.22 -287.792 1111.1C-312.313 1026.01 -214.492 960.059 -162.537 888.347C-118.661 827.786 -85.4445 752.4 -13.3956 732.357Z" fill="#1C2541" fill-opacity="0.31" stroke="#1C2541"/>
</g>
<defs>
<clipPath id="clip0_288_103">
<rect width="710" height="1024" fill="white"/>
</clipPath>
</defs>
</svg>
